<mxfile host="app.diagrams.net" modified="2023-02-27T15:35:26.360Z" agent="5.0 (Windows NT 10.0; Win64; x64) AppleWebKit/537.36 (KHTML, like Gecko) Chrome/110.0.0.0 Safari/537.36 Edg/110.0.1587.50" etag="AAJY4U4flG2c3xA59Q6Q" version="20.8.23" type="github">
  <diagram name="PÃ¡gina-1" id="nzzyqEEUkfmo-A8qoDmg">
    <mxGraphModel dx="1434" dy="796" grid="1" gridSize="10" guides="1" tooltips="1" connect="1" arrows="1" fold="1" page="1" pageScale="1" pageWidth="827" pageHeight="1169" math="0" shadow="0">
      <root>
        <mxCell id="0" />
        <mxCell id="1" parent="0" />
        <mxCell id="xMKiP37m7BUd31Z4AV8u-1" value="registro descendencia" style="rounded=0;whiteSpace=wrap;html=1;" vertex="1" parent="1">
          <mxGeometry x="393.5" y="250" width="126.5" height="60" as="geometry" />
        </mxCell>
        <mxCell id="xMKiP37m7BUd31Z4AV8u-2" value="persona" style="rounded=0;whiteSpace=wrap;html=1;glass=0;shadow=0;" vertex="1" parent="1">
          <mxGeometry x="640" y="80" width="120" height="60" as="geometry" />
        </mxCell>
        <mxCell id="xMKiP37m7BUd31Z4AV8u-3" value="" style="rhombus;whiteSpace=wrap;html=1;" vertex="1" parent="1">
          <mxGeometry x="413.5" y="70" width="80" height="80" as="geometry" />
        </mxCell>
        <mxCell id="xMKiP37m7BUd31Z4AV8u-10" value="familiares" style="rounded=0;whiteSpace=wrap;html=1;shadow=0;glass=0;sketch=0;" vertex="1" parent="1">
          <mxGeometry x="160" y="80" width="120" height="60" as="geometry" />
        </mxCell>
        <mxCell id="xMKiP37m7BUd31Z4AV8u-11" value="&lt;br&gt;&lt;ul style=&quot;border-color: var(--border-color); color: rgb(0, 0, 0); font-family: Helvetica; font-size: 12px; font-style: normal; font-variant-ligatures: normal; font-variant-caps: normal; font-weight: 400; letter-spacing: normal; orphans: 2; text-align: left; text-indent: 0px; text-transform: none; widows: 2; word-spacing: 0px; -webkit-text-stroke-width: 0px; background-color: rgb(251, 251, 251); text-decoration-thickness: initial; text-decoration-style: initial; text-decoration-color: initial;&quot;&gt;&lt;li style=&quot;border-color: var(--border-color);&quot;&gt;Nombre&lt;/li&gt;&lt;li style=&quot;border-color: var(--border-color);&quot;&gt;Apellidos&lt;/li&gt;&lt;li style=&quot;border-color: var(--border-color);&quot;&gt;edad&lt;/li&gt;&lt;li style=&quot;border-color: var(--border-color);&quot;&gt;rh&lt;/li&gt;&lt;li style=&quot;border-color: var(--border-color);&quot;&gt;genero&lt;/li&gt;&lt;li style=&quot;border-color: var(--border-color);&quot;&gt;fecha nacimiento&lt;/li&gt;&lt;/ul&gt;&lt;br&gt;" style="whiteSpace=wrap;html=1;aspect=fixed;rounded=0;shadow=0;glass=0;sketch=0;align=left;" vertex="1" parent="1">
          <mxGeometry x="160" y="140" width="120" height="120" as="geometry" />
        </mxCell>
        <mxCell id="xMKiP37m7BUd31Z4AV8u-12" value="&lt;ul&gt;&lt;li&gt;Nombre&lt;/li&gt;&lt;li&gt;Apellidos&lt;/li&gt;&lt;li&gt;edad&lt;/li&gt;&lt;li&gt;rh&lt;/li&gt;&lt;li&gt;genero&lt;/li&gt;&lt;li&gt;fecha nacimiento&lt;/li&gt;&lt;/ul&gt;" style="whiteSpace=wrap;html=1;aspect=fixed;rounded=0;shadow=0;glass=0;sketch=0;align=left;" vertex="1" parent="1">
          <mxGeometry x="640" y="140" width="120" height="120" as="geometry" />
        </mxCell>
        <mxCell id="xMKiP37m7BUd31Z4AV8u-13" value="&lt;ul&gt;&lt;li&gt;Parentesco&lt;/li&gt;&lt;/ul&gt;" style="whiteSpace=wrap;html=1;aspect=fixed;rounded=0;shadow=0;glass=0;sketch=0;align=left;" vertex="1" parent="1">
          <mxGeometry x="393.5" y="310" width="126.5" height="126.5" as="geometry" />
        </mxCell>
      </root>
    </mxGraphModel>
  </diagram>
</mxfile>
